<svg width="200" height="550" viewBox="0 0 200 550" fill="none" xmlns="http://www.w3.org/2000/svg">
<mask id="mask0_113_1641" style="mask-type:alpha" maskUnits="userSpaceOnUse" x="0" y="0" width="200" height="550">
<rect width="200" height="550" fill="#D9D9D9"/>
</mask>
<g mask="url(#mask0_113_1641)">
<mask id="mask1_113_1641" style="mask-type:luminance" maskUnits="userSpaceOnUse" x="94" y="78" width="107" height="97">
<path d="M200.429 78H94V174.433H200.429V78Z" fill="white"/>
</mask>
<g mask="url(#mask1_113_1641)">
<path d="M94.3071 150.914C115.601 155.128 118.432 157.469 124.284 161.282C125.863 160.56 127.295 159.204 128.259 156.795C131.991 147.469 137.841 137.357 142.164 140.677C146.487 143.997 142.155 149.631 136.146 154.748C130.389 159.652 128.669 163.168 135.193 167.273C137.629 168.394 140.436 169.587 143.947 170.966C147.927 172.53 151.843 173.512 155.638 174.088L155.671 173.974C155.671 173.974 156.145 174.09 156.599 174.202C157.265 174.291 157.924 174.35 158.582 174.413C160.839 174.553 163.559 174.047 163.67 170.2C163.856 163.728 161.394 155.605 167.037 153.778C172.68 151.951 174.078 154.276 170.951 157.323C167.861 160.334 166.548 174.221 173.294 173.828C189.292 171.171 200.428 162.908 200.428 162.908L180.118 79.611L161.707 78C156.475 78.866 151.8 80.186 147.347 81.687C143.832 83.871 150.944 86.009 155.628 88.912C161.905 92.802 167.357 101.868 164.014 104.153C160.671 106.438 157.956 107.587 149.181 94.585C145.016 88.415 138.638 87.413 133.056 88.012C126.416 91.84 120.918 96.339 116.355 101.203L116.57 101.343C109.429 108.849 114.124 110.02 120.375 111.45C126.625 112.881 129.949 114.922 129.949 114.922C135.085 118.02 135.938 122.016 131.258 122.734C126.577 123.453 127.326 117.776 117.958 113.69C108.589 109.604 100.036 127.469 100.036 127.469C94.9851 140.481 94.3071 150.914 94.3071 150.914ZM112.251 151.359C111.422 150.281 113.025 147.653 115.825 145.477C118.625 143.301 121.568 142.417 122.397 143.495C123.226 144.574 121.622 147.202 118.823 149.378C116.023 151.553 113.079 152.438 112.251 151.359ZM110.455 131.782C109.954 130.176 110.939 128.419 112.662 127.881C114.385 127.343 116.194 128.228 116.696 129.835C117.197 131.441 116.203 133.166 114.479 133.704C112.756 134.242 110.957 133.388 110.455 131.782ZM134.89 113.967C133.532 110.831 133.824 107.57 135.896 105.778C138.657 103.388 143.541 104.535 146.799 108.351C150.058 112.166 150.439 117.224 147.678 119.613C144.916 122.003 140.054 120.814 136.795 116.999C135.981 116.045 135.343 115.012 134.89 113.967ZM155.434 154.014C155.197 152.731 155.905 150.796 157.348 149.064C159.272 146.755 161.765 145.699 162.943 146.696C164.122 147.694 163.516 150.37 161.592 152.679C159.668 154.989 157.175 156.045 155.997 155.047C155.702 154.798 155.513 154.441 155.434 154.014ZM174.85 162.358C174.392 160.773 174.998 158.195 176.585 155.738C178.701 152.461 181.736 150.644 183.336 151.696C184.936 152.749 184.514 156.277 182.398 159.554C180.283 162.83 177.278 164.638 175.678 163.585C175.278 163.322 175.003 162.886 174.85 162.358Z" fill="#FA52F9"/>
<path d="M94.5 151.498C94.5 151.498 137.002 122.843 189.547 117.035" stroke="#DD38DC" stroke-miterlimit="10" stroke-linejoin="round"/>
<path d="M114.651 123.27C114.651 123.27 124.327 128.993 129.082 133.365" stroke="#DD38DC" stroke-miterlimit="10" stroke-linejoin="round"/>
<path d="M145.784 155.95C145.784 155.95 150.206 135.1 147.648 125.85" stroke="#DD38DC" stroke-miterlimit="10" stroke-linejoin="round"/>
<path d="M153.067 112.938C153.067 112.938 158.783 118.244 160.481 122.067" stroke="#DD38DC" stroke-miterlimit="10" stroke-linejoin="round"/>
<path d="M174.089 139.272C174.089 139.272 179.688 125.288 177.101 118.805" stroke="#DD38DC" stroke-miterlimit="10" stroke-linejoin="round"/>
</g>
<mask id="mask2_113_1641" style="mask-type:luminance" maskUnits="userSpaceOnUse" x="137" y="163" width="87" height="98">
<path d="M223.189 188.462L181.728 163.002L137.767 234.593L179.228 260.052L223.189 188.462Z" fill="white"/>
</mask>
<g mask="url(#mask2_113_1641)">
<path d="M209.136 179.832C209.136 179.832 223.429 220.285 169.522 253.157C169.522 253.157 150.038 217.583 173.805 175.904L209.136 179.832Z" fill="#30D0FF"/>
<path d="M185.754 241.612L179.517 230.358" stroke="#04B8E4" stroke-width="2" stroke-miterlimit="10" stroke-linejoin="round"/>
<path d="M169.58 253.374C169.58 253.374 182.663 234.388 191.574 178.066" stroke="#04B8E4" stroke-width="2" stroke-miterlimit="10" stroke-linejoin="round"/>
<path d="M163.231 230.465L181.213 224.736" stroke="#04B8E4" stroke-width="2" stroke-miterlimit="10" stroke-linejoin="round"/>
<path d="M184.049 215.137L161.999 220.002" stroke="#04B8E4" stroke-width="2" stroke-miterlimit="10" stroke-linejoin="round"/>
<path d="M185.122 210.939L193.427 233.652" stroke="#04B8E4" stroke-width="2" stroke-miterlimit="10" stroke-linejoin="round"/>
<path d="M176.339 239.232L179.034 246.857" stroke="#04B8E4" stroke-miterlimit="10" stroke-linejoin="round"/>
<path d="M164.696 241.014L178.448 232.873" stroke="#04B8E4" stroke-width="2" stroke-miterlimit="10" stroke-linejoin="round"/>
<path d="M162.278 210.99L186.938 204.46" stroke="#04B8E4" stroke-width="2" stroke-miterlimit="10" stroke-linejoin="round"/>
<path d="M200.799 224.31L188.128 198.202" stroke="#04B8E4" stroke-miterlimit="10" stroke-linejoin="round"/>
<path d="M207.803 209.213L190.153 187.031" stroke="#04B8E4" stroke-width="2" stroke-miterlimit="10" stroke-linejoin="round"/>
<path d="M164.177 201.16L188.694 192.63" stroke="#04B8E4" stroke-width="2" stroke-miterlimit="10" stroke-linejoin="round"/>
<path d="M211.069 190.071L190.74 181.746" stroke="#04B8E4" stroke-width="2" stroke-miterlimit="10" stroke-linejoin="round"/>
<path d="M167.395 189.528L191.059 179.635" stroke="#04B8E4" stroke-miterlimit="10" stroke-linejoin="round"/>
</g>
<mask id="mask3_113_1641" style="mask-type:luminance" maskUnits="userSpaceOnUse" x="15" y="65" width="264" height="236">
<path d="M207.091 65L15 190.995L86.6943 300.299L278.785 174.304L207.091 65Z" fill="white"/>
</mask>
<g mask="url(#mask3_113_1641)">
<path d="M209.627 68.8767C209.627 68.8767 227.678 110.783 186.732 175.29L168.536 177.464L182.22 191.904C182.22 191.904 172.447 228.269 148.545 245.381L128.71 236.217L141.886 256.906L131.867 265.02L117.142 260.604L123.703 274.333C123.703 274.333 113.843 288.102 82.4878 292.933C82.4878 292.933 78.3743 286.603 80.032 273.818L91.921 268.834L78.477 264.969L78.8155 252.243L99.8599 249.768L80.2369 239.49C80.2369 239.49 77.2882 218.51 90.4318 200.433L116.796 206.059L98.9843 185.029C98.9843 185.029 104.327 166.753 135.281 132.643L156.649 142.856L142.367 127.767C142.367 127.767 176.601 72.1852 209.627 68.8767Z" fill="#417138"/>
<path d="M82.5104 293.244C82.7639 293.206 82.9555 293.132 83.2071 293.092C95.2508 276.002 186.229 145.475 208.43 69.4217C175.785 73.9633 142.401 128.077 142.401 128.077L156.673 143.162L135.32 132.94C104.366 167.05 99.0149 185.322 99.0149 185.322L116.83 206.358L90.4527 200.739C77.3086 218.815 80.2645 239.788 80.2645 239.788L99.8844 250.07L78.8562 252.56L78.5137 265.272L91.9414 269.139L80.0695 274.124C78.411 286.909 82.5104 293.244 82.5104 293.244Z" fill="#508543"/>
<path d="M82.7128 292.406C82.7128 292.406 172.416 161.579 210.963 90.6047" stroke="#6AA95B" stroke-width="2" stroke-miterlimit="10" stroke-linejoin="round"/>
</g>
<mask id="mask4_113_1641" style="mask-type:luminance" maskUnits="userSpaceOnUse" x="83" y="148" width="217" height="235">
<path d="M182.701 148L299.555 219.513L199.854 382.426L83 310.914L182.701 148Z" fill="white"/>
</mask>
<g mask="url(#mask4_113_1641)">
<path d="M184.288 149.966C184.288 149.966 116.446 252.266 187.7 357.208" stroke="#F75184" stroke-width="1.96397" stroke-miterlimit="10" stroke-linejoin="round"/>
<path d="M128.701 238.158C128.701 238.158 134.392 217.531 160.213 207.698C160.213 207.698 151.818 223.855 128.701 238.158Z" fill="#F75184"/>
<path d="M185.38 228.081C185.38 228.081 167.981 224.186 160.359 208.63C160.359 208.63 174.884 211.025 185.38 228.081Z" fill="#F75184"/>
<path d="M155.891 232.898C155.891 232.898 156.722 237.35 168.78 242.694C180.839 248.038 180.738 251.054 180.738 251.054C180.738 251.054 174.947 233.025 155.891 232.898Z" fill="#F75184"/>
<path d="M156.427 230.691C156.427 230.691 136.274 239.621 132.976 259.144C132.976 259.144 137.177 253.424 145.816 246.979C154.454 240.534 153.813 236.017 156.427 230.691Z" fill="#F75184"/>
<path d="M139.678 293.003C139.678 293.003 141.562 264.509 155.01 256.173C155.01 256.173 148.877 279.19 139.678 293.003Z" fill="#F75184"/>
<path d="M154.945 254.853C154.945 254.853 171.581 256.722 176.835 265.179C176.835 265.179 164.531 268.555 154.945 254.853Z" fill="#F75184"/>
<path d="M157.189 282.762C157.189 282.762 174.567 276.055 184.134 283.444C184.134 283.444 171.721 286.507 157.189 282.762Z" fill="#F75184"/>
<path d="M158.09 284.676C158.09 284.676 153.195 302.42 147.969 311.235C147.969 311.235 144.996 300.822 158.09 284.676Z" fill="#F75184"/>
<path d="M162.5 303.242C162.5 303.242 179.259 297.192 188.097 302.563C188.097 302.563 176.229 306.737 162.5 303.242Z" fill="#F75184"/>
<path d="M162.964 305.539C162.964 305.539 161.184 317.784 157.623 324.057C157.623 324.057 154.589 318.466 162.964 305.539Z" fill="#F75184"/>
<path d="M164.889 342.558C164.889 342.558 160.119 329.6 167.595 319.397C167.595 319.397 168.8 333.864 164.889 342.558Z" fill="#F75184"/>
<path d="M168.081 320.89C168.081 320.89 175.814 318.145 182.802 320.767C182.802 320.767 175.272 324.08 168.081 320.89Z" fill="#F75184"/>
<path d="M176.423 337.716C176.423 337.716 189.528 333.43 195.934 336.093C195.934 336.093 185.59 342.048 176.423 337.716Z" fill="#F75184"/>
<path d="M177.187 339.713C177.187 339.713 177.91 351.167 176.114 355.977C176.114 355.977 171.79 352.716 177.187 339.713Z" fill="#F75184"/>
<path d="M184.848 353.223C184.848 353.223 186.28 372.929 202.768 377.665C202.768 377.665 200.064 376.177 197.949 370.011C195.834 363.843 188.261 355.496 184.848 353.223Z" fill="#F75184"/>
<path d="M186.536 354.597C186.536 354.597 197.036 355.042 200.029 357.604C200.029 357.604 193.58 360.038 186.536 354.597Z" fill="#F75184"/>
<path d="M185.508 353.722C185.508 353.722 180.473 367.354 184.915 373.284C184.915 373.284 187.786 364.814 185.508 353.722Z" fill="#F75184"/>
</g>
<mask id="mask5_113_1641" style="mask-type:luminance" maskUnits="userSpaceOnUse" x="165" y="25" width="70" height="235">
<path d="M234.548 259.98L234.548 25L165 25L165 259.98L234.548 259.98Z" fill="white"/>
</mask>
<g mask="url(#mask5_113_1641)">
<path d="M234.528 142.125C233.709 79.153 207.747 25 207.747 25C194.891 41.674 185.614 58.253 178.966 74.469C184.201 83.766 192.63 98.058 199.403 102.907C207.049 108.38 182.471 99.757 171.622 95.875C166.613 114.073 164.745 131.575 165.028 147.875L185.81 159.625L166.122 164.625C166.903 172.044 168.052 179.115 169.497 185.844C171.714 186.254 174.413 186.637 177.81 186.657L170.841 191.375C180.256 229.998 197.81 255.188 197.81 255.188C203.854 247.946 209.004 240.41 213.363 232.672C229.673 203.721 234.917 171.94 234.528 142.125Z" fill="#AEEE58"/>
<path d="M199.068 151.857L165.56 133.991" stroke="#7DB440" stroke-miterlimit="10" stroke-linejoin="round"/>
<path d="M197.691 191.264C197.691 191.264 176.786 182.748 167.767 176.198" stroke="#7DB440" stroke-miterlimit="10" stroke-linejoin="round"/>
<path d="M198.185 221.098L178.248 215.473" stroke="#7DB440" stroke-miterlimit="10" stroke-linejoin="round"/>
<path d="M200.192 107.372L229.563 93.712" stroke="#7DB440" stroke-miterlimit="10" stroke-linejoin="round"/>
<path d="M198.914 138.776L233.066 122.14" stroke="#7DB440" stroke-miterlimit="10" stroke-linejoin="round"/>
<path d="M197.919 174.157L233.928 155.628" stroke="#7DB440" stroke-miterlimit="10" stroke-linejoin="round"/>
<path d="M199.084 259.48C199.084 259.48 193.737 140.147 206.949 28.577" stroke="#7DB440" stroke-miterlimit="10" stroke-linejoin="round"/>
<path d="M202.096 82.5369C202.096 82.5369 187.237 65.449 184.558 61.778" stroke="#7DB440" stroke-miterlimit="10" stroke-linejoin="round"/>
<path d="M199.394 124.247L168.905 105.912" stroke="#7DB440" stroke-miterlimit="10" stroke-linejoin="round"/>
<path d="M198.089 208.724L228.166 195.593" stroke="#7DB440" stroke-miterlimit="10" stroke-linejoin="round"/>
<path d="M198.885 237.574L213.729 231.466" stroke="#7DB440" stroke-miterlimit="10" stroke-linejoin="round"/>
</g>
<mask id="mask6_113_1641" style="mask-type:luminance" maskUnits="userSpaceOnUse" x="63" y="-55" width="204" height="204">
<path d="M200.282 -55L63 82.282L128.782 148.064L266.064 10.7817L200.282 -55Z" fill="white"/>
</mask>
<g mask="url(#mask6_113_1641)">
<path d="M100.088 119.37C100.088 119.37 224.392 124.691 236.989 -18.2913C236.989 -18.2913 56.5103 0.126044 100.088 119.37Z" fill="#3F722E"/>
<path d="M101.079 118.03C101.079 118.03 122.641 52.9689 236.649 -17.0198" stroke="#8FB546" stroke-width="2.03519" stroke-miterlimit="10" stroke-linejoin="round"/>
<path d="M93.9028 94.1564L116.417 89.0412" stroke="#8FB546" stroke-width="2.03519" stroke-miterlimit="10" stroke-linejoin="round"/>
<path d="M95.9668 61.9993L135.732 65.9442" stroke="#8FB546" stroke-width="2.03519" stroke-miterlimit="10" stroke-linejoin="round"/>
<path d="M128.332 116.618L125.287 77.9679" stroke="#8FB546" stroke-width="2.03519" stroke-miterlimit="10" stroke-linejoin="round"/>
<path d="M165.874 102.953L150.36 49.0451" stroke="#8FB546" stroke-width="2.03519" stroke-miterlimit="10" stroke-linejoin="round"/>
<path d="M111.583 35.1377L160.865 39.3973" stroke="#8FB546" stroke-width="2.03519" stroke-miterlimit="10" stroke-linejoin="round"/>
<path d="M200.247 75.1501L175.034 26.3626" stroke="#8FB546" stroke-width="2.03519" stroke-miterlimit="10" stroke-linejoin="round"/>
<path d="M154.916 4.52209L191.825 13.5724" stroke="#8FB546" stroke-width="2.03519" stroke-miterlimit="10" stroke-linejoin="round"/>
<path d="M223.36 39.1972L211.5 -0.736615" stroke="#8FB546" stroke-width="2.03519" stroke-miterlimit="10" stroke-linejoin="round"/>
</g>
<mask id="mask7_113_1641" style="mask-type:luminance" maskUnits="userSpaceOnUse" x="22" y="-59" width="193" height="201">
<path d="M214.717 4.26384L94.3511 -59L22 78.6554L142.366 141.919L214.717 4.26384Z" fill="white"/>
</mask>
<g mask="url(#mask7_113_1641)">
<path d="M187.651 50.8371C189.523 27.6527 172.608 2.86054 172.608 2.86054L164.651 -14.3426L121.03 -26.6809C103.895 -26.1613 90.9518 -22.0432 80.9685 -15.9346C82.7334 -16.1028 84.4984 -16.2754 86.9664 -16.352C99.8887 -16.753 116.184 0.307448 116.717 6.11263C117.249 11.9165 112.259 7.78157 106.327 3.64811C100.396 -0.484003 92.0994 -2.69815 81.7294 -6.82226C75.5896 -9.2642 70.7742 -7.0063 67.6706 -4.7468C62.4362 1.28101 58.6437 8.043 56.1265 15.0719L56.2557 14.9851C75.1677 5.23649 94.9385 8.59437 100.909 14.9218C106.88 21.2478 103.174 23.8417 96.6625 19.7131C90.1502 15.5853 72.8642 14.4768 72.8642 14.4768C63.8395 14.6262 56.7515 22.2374 52.8449 27.3917C52.1407 31.2637 51.7149 35.0571 51.5216 38.7457L51.8871 38.3255C70.5917 30.0913 77.8286 34.5491 84.8455 35.013C91.8623 35.4768 95.5309 39.9446 91.3893 41.7568C87.2476 43.5689 83.4527 37.1018 70.8894 36.2804C58.9947 35.5021 52.6479 51.4143 51.9835 53.1619C52.172 54.9634 52.299 56.7338 52.5678 58.3222C53.0653 57.9646 60.7429 52.4448 71.9801 50.6351C83.5845 48.7653 87.149 56.9087 83.7306 58.9869C80.3114 61.0647 79.445 56.5164 69.3888 56.7303C59.8674 56.9328 55.7154 68.3229 55.2863 69.5671C60.1879 86.8251 54.9864 95.9928 54.9864 95.9928C60.5152 93.3856 67.3486 94.1168 74.9567 95.8415C76.8834 95.6363 79.2881 94.6013 80.2306 90.5383C81.852 83.548 83.2711 78.7222 86.9729 81.5535C90.646 84.3641 90.4404 94.664 82.6513 97.763C87.3174 99.0089 92.192 100.294 97.1492 101.279C99.4438 101.016 102.164 99.5877 101.926 93.4163C101.527 83.0723 97.0328 60.1243 103.824 66.3203C110.569 72.4751 110.132 87.0877 103.796 102.24C108.242 102.757 112.707 103.009 117.152 102.35C117.427 102.309 117.635 102.273 117.908 102.232C120.714 101.131 124.399 97.8058 124.293 87.9106C124.124 71.9675 118.345 49.8581 126.227 55.7792C133.99 61.6115 139.91 91.8436 129.989 100.307C136.666 99.1414 142.954 97.5897 149.166 94.7643C152.117 91.1481 157.148 82.9508 152.282 73.3326C145.718 60.3485 133.814 47.1192 144.32 48.1812C154.735 49.2337 164.719 78.09 162.597 86.62C167.37 82.9987 172.444 78.4818 178.169 72.5109C178.263 72.4171 178.311 72.3045 178.406 72.2107C179.407 69.2099 184.313 51.1066 156.23 42.8366C156.23 42.8366 145.816 33.1051 161.535 34.4373C173.982 35.4916 182.788 51.8791 186.023 58.8573C186.821 56.2219 187.429 53.5593 187.651 50.8371Z" fill="#AEEE58"/>
<path d="M93.5034 58.9337C93.5034 58.9337 98.032 70.782 95.7106 79.6243" stroke="#7DB440" stroke-miterlimit="10" stroke-linecap="round" stroke-linejoin="round"/>
<path d="M83.4734 67.6376L72.864 67.6274" stroke="#7DB440" stroke-miterlimit="10" stroke-linecap="round" stroke-linejoin="round"/>
<path d="M128.121 25.4895C128.121 25.4895 115.573 13.7935 102.918 9.15651" stroke="#7DB440" stroke-miterlimit="10" stroke-linecap="round" stroke-linejoin="round"/>
<path d="M110.278 41.3546C110.278 41.3546 101.711 27.1959 87.2059 25.9867" stroke="#7DB440" stroke-miterlimit="10" stroke-linecap="round" stroke-linejoin="round"/>
<path d="M173.374 -17.0544C172.861 -17.5998 172.021 -17.6482 171.475 -17.1341C157.275 -3.94773 142.966 9.17607 128.986 22.5968C118.802 32.3742 108.871 42.4032 98.8204 52.3189C91.3436 59.6942 83.8739 67.0924 76.4524 74.5238C72.0021 78.98 67.4099 83.3627 63.247 88.0953C65.6079 85.581 68.1653 83.213 70.6629 80.8361C73.9345 77.7238 77.2083 74.6546 80.5102 71.5729C89.6452 63.0459 98.8392 54.5679 108.046 46.1179C115.754 39.0417 123.569 32.0745 131.218 24.9345C145.384 11.713 159.29 -1.7768 173.322 -15.1401C173.868 -15.6542 173.888 -16.5086 173.374 -17.0544Z" fill="#7DB440"/>
<path d="M124.003 28.8936C124.003 28.8936 138.187 53.0175 140.137 69.0786" stroke="#7DB440" stroke-miterlimit="10" stroke-linecap="round" stroke-linejoin="round"/>
<path d="M110.229 42.2125C110.229 42.2125 119.888 60.4477 115.735 82.7878" stroke="#7DB440" stroke-miterlimit="10" stroke-linecap="round" stroke-linejoin="round"/>
<path d="M140.105 13.9624C140.105 13.9624 137.183 28.1158 142.202 36.1644" stroke="#7DB440" stroke-miterlimit="10" stroke-linecap="round" stroke-linejoin="round"/>
</g>
</g>
</svg>
