<svg width="1280" height="550" viewBox="0 0 1280 550" fill="none" xmlns="http://www.w3.org/2000/svg">
<g clip-path="url(#clip0_147_733)">
<rect width="1280" height="550" fill="#003773"/>
<g opacity="0.2">
<line x1="1034.04" y1="578.869" x2="1080.69" y2="489.783" stroke="#D6F4FD" stroke-width="2.03479"/>
<line x1="1099.32" y1="571.296" x2="1080.2" y2="488.747" stroke="#D6F4FD" stroke-width="2.03479"/>
<line x1="1174.59" y1="417.481" x2="1081.82" y2="489.322" stroke="#D6F4FD" stroke-width="2.03479"/>
<line x1="1298.91" y1="413.482" x2="1174" y2="417.693" stroke="#D6F4FD" stroke-width="2.03479"/>
<line x1="1341.28" y1="343.701" x2="1174.37" y2="417.607" stroke="#D6F4FD" stroke-width="2.03479"/>
<line x1="1301.88" y1="501.001" x2="1226.08" y2="474.152" stroke="#D6F4FD" stroke-width="2.03479"/>
<line x1="1283.27" y1="548.812" x2="1225.72" y2="474.249" stroke="#D6F4FD" stroke-width="2.03479"/>
<line x1="1284.2" y1="549.2" x2="1100.87" y2="571.975" stroke="#D6F4FD" stroke-width="2.03479"/>
<line x1="1299.53" y1="413.245" x2="1227.07" y2="473.972" stroke="#D6F4FD" stroke-width="2.03479"/>
<line x1="1227.04" y1="473.997" x2="1100.94" y2="571.871" stroke="#D6F4FD" stroke-width="2.03479"/>
<line x1="1225.68" y1="473.885" x2="1173.22" y2="417.369" stroke="#D6F4FD" stroke-width="2.03479"/>
<line x1="1174.88" y1="417.114" x2="1101.23" y2="571.504" stroke="#D6F4FD" stroke-width="2.03479"/>
<circle cx="1081.36" cy="488.249" r="9.58834" transform="rotate(-13.0402 1081.36 488.249)" fill="#A1F8FD"/>
<circle cx="1226.59" cy="472.925" r="9.58834" transform="rotate(-13.0402 1226.59 472.925)" fill="#A1F8FD"/>
<circle cx="1174.13" cy="416.409" r="9.58834" transform="rotate(-13.0402 1174.13 416.409)" fill="#A1F8FD"/>
<circle cx="1284.24" cy="547.922" r="9.58834" transform="rotate(-13.0402 1284.24 547.922)" fill="#A1F8FD"/>
</g>
<g opacity="0.2">
<line x1="37.229" y1="132.077" x2="3.09331" y2="53.3228" stroke="#D6F4FD" stroke-width="1.04472"/>
<line x1="95.1923" y1="53.8627" x2="3.57112" y2="53.6375" stroke="#D6F4FD" stroke-width="1.04472"/>
<line x1="173.98" y1="78.1257" x2="95.0401" y2="53.8394" stroke="#D6F4FD" stroke-width="1.04472"/>
<line x1="133.804" y1="166.506" x2="99.9724" y2="113.607" stroke="#D6F4FD" stroke-width="1.04472"/>
<line x1="61.4097" y1="189.652" x2="99.7991" y2="113.407" stroke="#D6F4FD" stroke-width="1.04472"/>
<line x1="61.394" y1="190.088" x2="37.2258" y2="132.07" stroke="#D6F4FD" stroke-width="1.04472"/>
<line x1="134.406" y1="166.721" x2="62.0389" y2="190.383" stroke="#D6F4FD" stroke-width="1.04472"/>
<line x1="233.814" y1="88.262" x2="134.568" y2="166.635" stroke="#D6F4FD" stroke-width="1.04472"/>
<line x1="175.305" y1="78.5383" x2="100.635" y2="113.798" stroke="#D6F4FD" stroke-width="1.04472"/>
<line x1="175.556" y1="78.2855" x2="134.717" y2="166.445" stroke="#D6F4FD" stroke-width="1.04472"/>
<line x1="233.404" y1="88.3672" x2="174.996" y2="78.5812" stroke="#D6F4FD" stroke-width="1.04472"/>
<line x1="100.56" y1="113.827" x2="37.8562" y2="132.37" stroke="#D6F4FD" stroke-width="1.04472"/>
<line x1="99.8917" y1="113.371" x2="94.6732" y2="53.3853" stroke="#D6F4FD" stroke-width="1.04472"/>
<line x1="95.6138" y1="53.6507" x2="39.0065" y2="130.284" stroke="#D6F4FD" stroke-width="1.04472"/>
<circle cx="3.80384" cy="53.03" r="7.48715" transform="rotate(24.8551 3.80384 53.03)" fill="#A1F8FD"/>
<circle cx="37.9393" cy="131.784" r="7.48715" transform="rotate(24.8551 37.9393 131.784)" fill="#A1F8FD"/>
<circle cx="100.644" cy="113.24" r="7.48715" transform="rotate(24.8551 100.644 113.24)" fill="#A1F8FD"/>
<circle cx="95.4249" cy="53.2547" r="7.48715" transform="rotate(24.8551 95.4249 53.2547)" fill="#A1F8FD"/>
<circle cx="174.365" cy="77.5418" r="7.48715" transform="rotate(24.8551 174.365 77.5418)" fill="#A1F8FD"/>
<circle cx="233.721" cy="87.7664" r="7.48715" transform="rotate(24.8551 233.721 87.7664)" fill="#A1F8FD"/>
<circle cx="134.475" cy="166.14" r="7.48715" transform="rotate(24.8551 134.475 166.14)" fill="#A1F8FD"/>
<circle cx="62.1075" cy="189.802" r="7.48715" transform="rotate(24.8551 62.1075 189.802)" fill="#A1F8FD"/>
</g>
<g opacity="0.2" clip-path="url(#clip1_147_733)">
<mask id="mask0_147_733" style="mask-type:luminance" maskUnits="userSpaceOnUse" x="111" y="58" width="783" height="644">
<path d="M277.688 58.701L893.57 409.619L727.202 701.606L111.319 350.688L277.688 58.701Z" fill="white"/>
</mask>
<g mask="url(#mask0_147_733)">
<path d="M571.673 465.493C578.299 469.242 581.584 475.982 579.008 480.549C576.432 485.116 568.972 485.78 562.346 482.031" stroke="#A1F8FD" stroke-width="1.869" stroke-miterlimit="10" stroke-linejoin="round"/>
</g>
<mask id="mask1_147_733" style="mask-type:luminance" maskUnits="userSpaceOnUse" x="111" y="58" width="783" height="644">
<path d="M277.688 58.701L893.57 409.619L727.202 701.606L111.319 350.688L277.688 58.701Z" fill="white"/>
</mask>
<g mask="url(#mask1_147_733)">
<path d="M581 448.955C587.627 452.703 590.911 459.444 588.336 464.011C585.76 468.578 578.3 469.242 571.673 465.493" stroke="#A1F8FD" stroke-width="1.869" stroke-miterlimit="10" stroke-linejoin="round"/>
</g>
<mask id="mask2_147_733" style="mask-type:luminance" maskUnits="userSpaceOnUse" x="111" y="58" width="783" height="644">
<path d="M277.688 58.701L893.57 409.619L727.202 701.606L111.319 350.688L277.688 58.701Z" fill="white"/>
</mask>
<g mask="url(#mask2_147_733)">
<path d="M554.616 475.231L545.573 450.654L571.323 445.904" stroke="#A1F8FD" stroke-width="1.869" stroke-miterlimit="10" stroke-linejoin="round"/>
</g>
</g>
<g opacity="0.2" clip-path="url(#clip2_147_733)">
<mask id="mask3_147_733" style="mask-type:luminance" maskUnits="userSpaceOnUse" x="593" y="-114" width="815" height="459">
<path d="M593.656 -113.1H1407.78V344.843H593.656V-113.1Z" fill="white"/>
</mask>
<g mask="url(#mask3_147_733)">
<path d="M1120.42 79.4199L1084.45 43.4494" stroke="#A1F8FD" stroke-width="4.52176" stroke-miterlimit="10" stroke-linejoin="round"/>
</g>
<mask id="mask4_147_733" style="mask-type:luminance" maskUnits="userSpaceOnUse" x="593" y="-114" width="815" height="459">
<path d="M593.656 -113.1H1407.78V344.843H593.656V-113.1Z" fill="white"/>
</mask>
<g mask="url(#mask4_147_733)">
<path d="M1084.45 79.4199L1120.42 43.4494" stroke="#A1F8FD" stroke-width="4.52176" stroke-miterlimit="10" stroke-linejoin="round"/>
</g>
<mask id="mask5_147_733" style="mask-type:luminance" maskUnits="userSpaceOnUse" x="593" y="-114" width="815" height="459">
<path d="M593.656 -113.1H1407.78V344.843H593.656V-113.1Z" fill="white"/>
</mask>
<g mask="url(#mask5_147_733)">
<path d="M1102.43 86.8696V35.9998" stroke="#A1F8FD" stroke-width="4.52176" stroke-miterlimit="10" stroke-linejoin="round"/>
</g>
<mask id="mask6_147_733" style="mask-type:luminance" maskUnits="userSpaceOnUse" x="593" y="-114" width="815" height="459">
<path d="M593.656 -113.1H1407.78V344.843H593.656V-113.1Z" fill="white"/>
</mask>
<g mask="url(#mask6_147_733)">
<path d="M1077 61.4351H1127.87" stroke="#A1F8FD" stroke-width="4.52176" stroke-miterlimit="10" stroke-linejoin="round"/>
</g>
</g>
<g opacity="0.2" clip-path="url(#clip3_147_733)">
<mask id="mask7_147_733" style="mask-type:luminance" maskUnits="userSpaceOnUse" x="-456" y="331" width="815" height="459">
<path d="M-455.249 331.537H358.872V789.48H-455.249V331.537Z" fill="white"/>
</mask>
<g mask="url(#mask7_147_733)">
<path d="M71.5165 524.058L35.5459 488.087" stroke="#A1F8FD" stroke-width="4.52176" stroke-miterlimit="10" stroke-linejoin="round"/>
</g>
<mask id="mask8_147_733" style="mask-type:luminance" maskUnits="userSpaceOnUse" x="-456" y="331" width="815" height="459">
<path d="M-455.249 331.537H358.872V789.48H-455.249V331.537Z" fill="white"/>
</mask>
<g mask="url(#mask8_147_733)">
<path d="M35.5459 524.058L71.5165 488.087" stroke="#A1F8FD" stroke-width="4.52176" stroke-miterlimit="10" stroke-linejoin="round"/>
</g>
<mask id="mask9_147_733" style="mask-type:luminance" maskUnits="userSpaceOnUse" x="-456" y="331" width="815" height="459">
<path d="M-455.249 331.537H358.872V789.48H-455.249V331.537Z" fill="white"/>
</mask>
<g mask="url(#mask9_147_733)">
<path d="M53.531 531.507V480.637" stroke="#A1F8FD" stroke-width="4.52176" stroke-miterlimit="10" stroke-linejoin="round"/>
</g>
<mask id="mask10_147_733" style="mask-type:luminance" maskUnits="userSpaceOnUse" x="-456" y="331" width="815" height="459">
<path d="M-455.249 331.537H358.872V789.48H-455.249V331.537Z" fill="white"/>
</mask>
<g mask="url(#mask10_147_733)">
<path d="M28.0959 506.072H78.9658" stroke="#A1F8FD" stroke-width="4.52176" stroke-miterlimit="10" stroke-linejoin="round"/>
</g>
</g>
</g>
<defs>
<clipPath id="clip0_147_733">
<rect width="1280" height="550" fill="white"/>
</clipPath>
<clipPath id="clip1_147_733">
<rect width="45.697" height="39.5293" fill="white" transform="translate(554.569 433) rotate(29.6737)"/>
</clipPath>
<clipPath id="clip2_147_733">
<rect width="50.8698" height="50.8698" fill="white" transform="translate(1077 36)"/>
</clipPath>
<clipPath id="clip3_147_733">
<rect width="50.8698" height="50.8698" fill="white" transform="translate(28.0962 480.638)"/>
</clipPath>
</defs>
</svg>
