<svg width="1440" height="956" viewBox="0 0 1440 956" fill="none" xmlns="http://www.w3.org/2000/svg">
<g clip-path="url(#clip0_136_106)">
<rect width="1440" height="956" fill="#003773"/>
<g opacity="0.2">
<line x1="1107.3" y1="978.451" x2="1176.09" y2="847.106" stroke="#D6F4FD" stroke-width="3"/>
<line x1="1203.55" y1="967.285" x2="1175.36" y2="845.578" stroke="#D6F4FD" stroke-width="3"/>
<line x1="1314.52" y1="740.506" x2="1177.74" y2="846.425" stroke="#D6F4FD" stroke-width="3"/>
<line x1="1497.81" y1="734.611" x2="1313.65" y2="740.82" stroke="#D6F4FD" stroke-width="3"/>
<line x1="1560.29" y1="631.73" x2="1314.21" y2="740.693" stroke="#D6F4FD" stroke-width="3"/>
<line x1="1502.19" y1="863.644" x2="1390.44" y2="824.06" stroke="#D6F4FD" stroke-width="3"/>
<line x1="1474.75" y1="934.135" x2="1389.9" y2="824.203" stroke="#D6F4FD" stroke-width="3"/>
<line x1="1476.13" y1="934.707" x2="1205.84" y2="968.287" stroke="#D6F4FD" stroke-width="3"/>
<line x1="1498.73" y1="734.262" x2="1391.9" y2="823.795" stroke="#D6F4FD" stroke-width="3"/>
<line x1="1391.86" y1="823.831" x2="1205.93" y2="968.132" stroke="#D6F4FD" stroke-width="3"/>
<line x1="1389.84" y1="823.667" x2="1312.5" y2="740.342" stroke="#D6F4FD" stroke-width="3"/>
<line x1="1314.95" y1="739.966" x2="1206.37" y2="967.592" stroke="#D6F4FD" stroke-width="3"/>
<circle cx="1177.07" cy="844.846" r="14.1366" transform="rotate(-13.0402 1177.07 844.846)" fill="#A1F8FD"/>
<circle cx="1205.26" cy="966.552" r="14.1366" transform="rotate(-13.0402 1205.26 966.552)" fill="#A1F8FD"/>
<circle cx="1391.19" cy="822.252" r="14.1366" transform="rotate(-13.0402 1391.19 822.252)" fill="#A1F8FD"/>
<circle cx="1313.84" cy="738.927" r="14.1366" transform="rotate(-13.0402 1313.84 738.927)" fill="#A1F8FD"/>
</g>
<g opacity="0.2">
<line x1="22.1158" y1="82.0016" x2="-112.966" y2="81.6696" stroke="#D6F4FD" stroke-width="1.54028"/>
<line x1="138.277" y1="117.774" x2="21.8912" y2="81.9675" stroke="#D6F4FD" stroke-width="1.54028"/>
<line x1="79.0419" y1="248.078" x2="29.1627" y2="170.086" stroke="#D6F4FD" stroke-width="1.54028"/>
<line x1="-27.6917" y1="282.202" x2="28.9079" y2="169.791" stroke="#D6F4FD" stroke-width="1.54028"/>
<line x1="79.93" y1="248.395" x2="-26.7645" y2="283.281" stroke="#D6F4FD" stroke-width="1.54028"/>
<line x1="226.492" y1="132.719" x2="80.1681" y2="248.269" stroke="#D6F4FD" stroke-width="1.54028"/>
<line x1="140.23" y1="118.382" x2="30.1404" y2="170.368" stroke="#D6F4FD" stroke-width="1.54028"/>
<line x1="140.6" y1="118.009" x2="80.3895" y2="247.987" stroke="#D6F4FD" stroke-width="1.54028"/>
<line x1="225.888" y1="132.874" x2="139.774" y2="118.446" stroke="#D6F4FD" stroke-width="1.54028"/>
<line x1="30.0299" y1="170.41" x2="-62.4179" y2="197.75" stroke="#D6F4FD" stroke-width="1.54028"/>
<line x1="29.0443" y1="169.739" x2="21.3503" y2="81.2986" stroke="#D6F4FD" stroke-width="1.54028"/>
<line x1="22.7371" y1="81.689" x2="-60.7219" y2="194.673" stroke="#D6F4FD" stroke-width="1.54028"/>
<circle cx="30.1524" cy="169.547" r="11.0387" transform="rotate(24.8551 30.1524 169.547)" fill="#A1F8FD"/>
<circle cx="22.4585" cy="81.1058" r="11.0387" transform="rotate(24.8551 22.4585 81.1058)" fill="#A1F8FD"/>
<circle cx="138.844" cy="116.913" r="11.0387" transform="rotate(24.8551 138.844 116.913)" fill="#A1F8FD"/>
<circle cx="226.356" cy="131.988" r="11.0387" transform="rotate(24.8551 226.356 131.988)" fill="#A1F8FD"/>
<circle cx="80.0315" cy="247.538" r="11.0387" transform="rotate(24.8551 80.0315 247.538)" fill="#A1F8FD"/>
</g>
<g opacity="0.2" clip-path="url(#clip1_136_106)">
<mask id="mask0_136_106" style="mask-type:luminance" maskUnits="userSpaceOnUse" x="83" y="229" width="1154" height="949">
<path d="M328.632 229.152L1236.66 746.529L991.374 1177.02L83.346 659.643L328.632 229.152Z" fill="white"/>
</mask>
<g mask="url(#mask0_136_106)">
<path d="M762.069 828.906C771.839 834.432 776.681 844.37 772.884 851.104C769.086 857.837 758.088 858.815 748.318 853.288" stroke="#A1F8FD" stroke-width="2.75556" stroke-miterlimit="10" stroke-linejoin="round"/>
</g>
<mask id="mask1_136_106" style="mask-type:luminance" maskUnits="userSpaceOnUse" x="83" y="229" width="1154" height="949">
<path d="M328.632 229.152L1236.66 746.529L991.374 1177.02L83.346 659.643L328.632 229.152Z" fill="white"/>
</mask>
<g mask="url(#mask1_136_106)">
<path d="M775.821 804.523C785.591 810.049 790.433 819.988 786.636 826.721C782.838 833.454 771.839 834.432 762.069 828.906" stroke="#A1F8FD" stroke-width="2.75556" stroke-miterlimit="10" stroke-linejoin="round"/>
</g>
<mask id="mask2_136_106" style="mask-type:luminance" maskUnits="userSpaceOnUse" x="83" y="229" width="1154" height="949">
<path d="M328.632 229.152L1236.66 746.529L991.374 1177.02L83.346 659.643L328.632 229.152Z" fill="white"/>
</mask>
<g mask="url(#mask2_136_106)">
<path d="M736.92 843.263L723.588 807.028L761.552 800.025" stroke="#A1F8FD" stroke-width="2.75556" stroke-miterlimit="10" stroke-linejoin="round"/>
</g>
</g>
<g opacity="0.2" clip-path="url(#clip2_136_106)">
<mask id="mask3_136_106" style="mask-type:luminance" maskUnits="userSpaceOnUse" x="623" y="-52" width="1201" height="676">
<path d="M623.38 -51.8261H1823.68V623.343H623.38V-51.8261Z" fill="white"/>
</mask>
<g mask="url(#mask3_136_106)">
<path d="M1400.02 232.017L1346.98 178.983" stroke="#A1F8FD" stroke-width="6.66667" stroke-miterlimit="10" stroke-linejoin="round"/>
</g>
<mask id="mask4_136_106" style="mask-type:luminance" maskUnits="userSpaceOnUse" x="623" y="-52" width="1201" height="676">
<path d="M623.38 -51.8261H1823.68V623.343H623.38V-51.8261Z" fill="white"/>
</mask>
<g mask="url(#mask4_136_106)">
<path d="M1346.98 232.017L1400.02 178.983" stroke="#A1F8FD" stroke-width="6.66667" stroke-miterlimit="10" stroke-linejoin="round"/>
</g>
<mask id="mask5_136_106" style="mask-type:luminance" maskUnits="userSpaceOnUse" x="623" y="-52" width="1201" height="676">
<path d="M623.38 -51.8261H1823.68V623.343H623.38V-51.8261Z" fill="white"/>
</mask>
<g mask="url(#mask5_136_106)">
<path d="M1373.5 243V168" stroke="#A1F8FD" stroke-width="6.66667" stroke-miterlimit="10" stroke-linejoin="round"/>
</g>
<mask id="mask6_136_106" style="mask-type:luminance" maskUnits="userSpaceOnUse" x="623" y="-52" width="1201" height="676">
<path d="M623.38 -51.8261H1823.68V623.343H623.38V-51.8261Z" fill="white"/>
</mask>
<g mask="url(#mask6_136_106)">
<path d="M1336 205.5H1411" stroke="#A1F8FD" stroke-width="6.66667" stroke-miterlimit="10" stroke-linejoin="round"/>
</g>
</g>
<g opacity="0.2" clip-path="url(#clip3_136_106)">
<mask id="mask7_136_106" style="mask-type:luminance" maskUnits="userSpaceOnUse" x="-750" y="590" width="1201" height="676">
<path d="M-749.62 590.174H450.68V1265.34H-749.62V590.174Z" fill="white"/>
</mask>
<g mask="url(#mask7_136_106)">
<path d="M27.0168 874.017L-26.0165 820.983" stroke="#A1F8FD" stroke-width="6.66667" stroke-miterlimit="10" stroke-linejoin="round"/>
</g>
<mask id="mask8_136_106" style="mask-type:luminance" maskUnits="userSpaceOnUse" x="-750" y="590" width="1201" height="676">
<path d="M-749.62 590.174H450.68V1265.34H-749.62V590.174Z" fill="white"/>
</mask>
<g mask="url(#mask8_136_106)">
<path d="M-26.0164 874.017L27.0168 820.983" stroke="#A1F8FD" stroke-width="6.66667" stroke-miterlimit="10" stroke-linejoin="round"/>
</g>
<mask id="mask9_136_106" style="mask-type:luminance" maskUnits="userSpaceOnUse" x="-750" y="590" width="1201" height="676">
<path d="M-749.62 590.174H450.68V1265.34H-749.62V590.174Z" fill="white"/>
</mask>
<g mask="url(#mask9_136_106)">
<path d="M0.5 885V810" stroke="#A1F8FD" stroke-width="6.66667" stroke-miterlimit="10" stroke-linejoin="round"/>
</g>
<mask id="mask10_136_106" style="mask-type:luminance" maskUnits="userSpaceOnUse" x="-750" y="590" width="1201" height="676">
<path d="M-749.62 590.174H450.68V1265.34H-749.62V590.174Z" fill="white"/>
</mask>
<g mask="url(#mask10_136_106)">
<path d="M-37 847.5H38" stroke="#A1F8FD" stroke-width="6.66667" stroke-miterlimit="10" stroke-linejoin="round"/>
</g>
</g>
</g>
<defs>
<clipPath id="clip0_136_106">
<rect width="1440" height="956" fill="white"/>
</clipPath>
<clipPath id="clip1_136_106">
<rect width="67.3735" height="58.2801" fill="white" transform="translate(736.852 781) rotate(29.6737)"/>
</clipPath>
<clipPath id="clip2_136_106">
<rect width="75" height="75" fill="white" transform="translate(1336 168)"/>
</clipPath>
<clipPath id="clip3_136_106">
<rect width="75" height="75" fill="white" transform="translate(-37 810)"/>
</clipPath>
</defs>
</svg>
