<svg width="400" height="400" viewBox="0 0 400 400" fill="none" xmlns="http://www.w3.org/2000/svg">
<g clip-path="url(#clip0_147_188)">
<path d="M-1 0H399V400L-1 380V0Z" fill="#4285F4"/>
<g opacity="0.2">
<line x1="350.109" y1="60.0372" x2="413.648" y2="35.054" stroke="#D6F4FD" stroke-width="1.08797"/>
<line x1="279.989" y1="41.9808" x2="350.443" y2="60.0168" stroke="#D6F4FD" stroke-width="1.08797"/>
<line x1="244.952" y1="74.0399" x2="350.236" y2="60.0043" stroke="#D6F4FD" stroke-width="1.08797"/>
<line x1="292.598" y1="-7.39241" x2="330.551" y2="19.9747" stroke="#D6F4FD" stroke-width="1.08797"/>
<line x1="310.78" y1="-31.0801" x2="330.755" y2="19.9585" stroke="#D6F4FD" stroke-width="1.08797"/>
<line x1="247.779" y1="20.4887" x2="291.989" y2="-7.41143" stroke="#D6F4FD" stroke-width="1.08797"/>
<line x1="244.48" y1="74.5483" x2="247.54" y2="20.659" stroke="#D6F4FD" stroke-width="1.08797"/>
<line x1="248.372" y1="20.4968" x2="280.172" y2="41.7963" stroke="#D6F4FD" stroke-width="1.08797"/>
<line x1="279.636" y1="42.0096" x2="330.015" y2="19.918" stroke="#D6F4FD" stroke-width="1.08797"/>
<line x1="279.341" y1="42.115" x2="291.752" y2="-7.08467" stroke="#D6F4FD" stroke-width="1.08797"/>
<line x1="244.653" y1="74.1803" x2="279.499" y2="41.8496" stroke="#D6F4FD" stroke-width="1.08797"/>
<line x1="330.034" y1="19.909" x2="416.442" y2="-14.1724" stroke="#D6F4FD" stroke-width="1.08797"/>
<line x1="330.72" y1="20.1717" x2="350.794" y2="60.2993" stroke="#D6F4FD" stroke-width="1.08797"/>
<line x1="349.902" y1="60.1809" x2="416.236" y2="-14.0281" stroke="#D6F4FD" stroke-width="1.08797"/>
<circle cx="330.096" cy="20.5377" r="5.57926" transform="rotate(-176.75 330.096 20.5377)" fill="#A1F8FD"/>
<circle cx="350.171" cy="60.6662" r="5.57926" transform="rotate(-176.75 350.171 60.6662)" fill="#A1F8FD"/>
<circle cx="279.717" cy="42.6295" r="5.57926" transform="rotate(-176.75 279.717 42.6295)" fill="#A1F8FD"/>
<circle cx="244.886" cy="74.7013" r="5.57926" transform="rotate(-176.75 244.886 74.7013)" fill="#A1F8FD"/>
<circle cx="247.932" cy="21.0714" r="5.57926" transform="rotate(-176.75 247.932 21.0714)" fill="#A1F8FD"/>
</g>
<g opacity="0.2">
<line x1="388.325" y1="371.508" x2="462.231" y2="363.805" stroke="#D6F4FD" stroke-width="1.0561"/>
<line x1="322.73" y1="358.722" x2="388.481" y2="371.514" stroke="#D6F4FD" stroke-width="1.0561"/>
<line x1="347.586" y1="284.028" x2="379.421" y2="323.777" stroke="#D6F4FD" stroke-width="1.0561"/>
<line x1="403.991" y1="259.235" x2="379.594" y2="324.026" stroke="#D6F4FD" stroke-width="1.0561"/>
<line x1="346.957" y1="283.877" x2="403.281" y2="258.567" stroke="#D6F4FD" stroke-width="1.0561"/>
<line x1="273.513" y1="355.727" x2="346.804" y2="283.982" stroke="#D6F4FD" stroke-width="1.0561"/>
<line x1="321.552" y1="358.517" x2="378.734" y2="323.655" stroke="#D6F4FD" stroke-width="1.0561"/>
<line x1="321.327" y1="358.798" x2="346.673" y2="284.188" stroke="#D6F4FD" stroke-width="1.0561"/>
<line x1="273.914" y1="355.577" x2="321.859" y2="358.442" stroke="#D6F4FD" stroke-width="1.0561"/>
<line x1="378.806" y1="323.619" x2="427.777" y2="303.269" stroke="#D6F4FD" stroke-width="1.0561"/>
<line x1="379.527" y1="324.006" x2="388.898" y2="371.931" stroke="#D6F4FD" stroke-width="1.0561"/>
<line x1="387.924" y1="371.766" x2="426.979" y2="305.095" stroke="#D6F4FD" stroke-width="1.0561"/>
<circle cx="378.83" cy="324.195" r="6.07224" transform="rotate(-161.236 378.83 324.195)" fill="#A1F8FD"/>
<circle cx="388.201" cy="372.121" r="6.07224" transform="rotate(-161.236 388.201 372.121)" fill="#A1F8FD"/>
<circle cx="322.45" cy="359.329" r="6.07224" transform="rotate(-161.236 322.45 359.329)" fill="#A1F8FD"/>
<circle cx="273.703" cy="356.192" r="6.07224" transform="rotate(-161.236 273.703 356.192)" fill="#A1F8FD"/>
<circle cx="346.994" cy="284.447" r="6.07224" transform="rotate(-161.236 346.994 284.447)" fill="#A1F8FD"/>
<circle cx="403.318" cy="259.137" r="6.07224" transform="rotate(-161.236 403.318 259.137)" fill="#A1F8FD"/>
</g>
<g opacity="0.2">
<mask id="mask0_147_188" style="mask-type:luminance" maskUnits="userSpaceOnUse" x="-16" y="-96" width="469" height="264">
<path d="M-15.8586 -95.3639H452.444V167.532H-15.8586V-95.3639Z" fill="white"/>
</mask>
<g mask="url(#mask0_147_188)">
<path d="M73.3905 77.2248C73.3905 63.6292 61.3515 52.6078 46.5004 52.6078C31.6494 52.6078 19.6101 63.6292 19.6101 77.2248C19.6101 90.8204 31.6494 101.842 46.5004 101.842C61.3515 101.842 73.3905 90.8204 73.3905 77.2248Z" stroke="#A1F8FD" stroke-width="2.75689" stroke-miterlimit="10" stroke-linejoin="round"/>
</g>
<mask id="mask1_147_188" style="mask-type:luminance" maskUnits="userSpaceOnUse" x="-16" y="-96" width="469" height="264">
<path d="M-15.8586 -95.3639H452.444V167.532H-15.8586V-95.3639Z" fill="white"/>
</mask>
<g mask="url(#mask1_147_188)">
<path d="M58.1087 77.2248C58.1087 63.6292 52.9113 52.6078 46.5001 52.6078C40.089 52.6078 34.8916 63.6292 34.8916 77.2248C34.8916 90.8204 40.089 101.842 46.5001 101.842C52.9113 101.842 58.1087 90.8204 58.1087 77.2248Z" stroke="#A1F8FD" stroke-width="2.75689" stroke-miterlimit="10" stroke-linejoin="round"/>
</g>
<mask id="mask2_147_188" style="mask-type:luminance" maskUnits="userSpaceOnUse" x="-16" y="-96" width="469" height="264">
<path d="M-15.8586 -95.3639H452.444V167.532H-15.8586V-95.3639Z" fill="white"/>
</mask>
<g mask="url(#mask2_147_188)">
<path d="M21.4985 68.1035H71.483" stroke="#A1F8FD" stroke-width="2.75689" stroke-miterlimit="10" stroke-linejoin="round"/>
</g>
<mask id="mask3_147_188" style="mask-type:luminance" maskUnits="userSpaceOnUse" x="-16" y="-96" width="469" height="264">
<path d="M-15.8586 -95.3639H452.444V167.532H-15.8586V-95.3639Z" fill="white"/>
</mask>
<g mask="url(#mask3_147_188)">
<path d="M21.4985 86.3052H71.483" stroke="#A1F8FD" stroke-width="2.75689" stroke-miterlimit="10" stroke-linejoin="round"/>
</g>
</g>
</g>
<defs>
<clipPath id="clip0_147_188">
<rect width="400" height="400" fill="white"/>
</clipPath>
</defs>
</svg>
