<svg width="1440" height="1076" viewBox="0 0 1440 1076" fill="none" xmlns="http://www.w3.org/2000/svg">
<path d="M0 0H1440V1025.5L0 969.5L0 0Z" fill="#4285F4"/>
<g opacity="0.2">
<line x1="1539.32" y1="-19.6642" x2="1427.37" y2="96.5358" stroke="#D6F4FD" stroke-width="3"/>
<line x1="1435.33" y1="-37.2989" x2="1427.62" y2="98.4377" stroke="#D6F4FD" stroke-width="3"/>
<line x1="1250.37" y1="165.846" x2="1425.58" y2="96.9567" stroke="#D6F4FD" stroke-width="3"/>
<line x1="1057.02" y1="116.056" x2="1251.29" y2="165.789" stroke="#D6F4FD" stroke-width="3"/>
<line x1="960.411" y1="204.457" x2="1250.72" y2="165.755" stroke="#D6F4FD" stroke-width="3"/>
<line x1="1091.79" y1="-20.0865" x2="1196.45" y2="55.3764" stroke="#D6F4FD" stroke-width="3"/>
<line x1="1141.93" y1="-85.4031" x2="1197.01" y2="55.332" stroke="#D6F4FD" stroke-width="3"/>
<line x1="968.206" y1="56.7942" x2="1090.11" y2="-20.1384" stroke="#D6F4FD" stroke-width="3"/>
<line x1="959.112" y1="205.859" x2="967.549" y2="57.2633" stroke="#D6F4FD" stroke-width="3"/>
<line x1="969.841" y1="56.8165" x2="1057.53" y2="115.548" stroke="#D6F4FD" stroke-width="3"/>
<line x1="1056.05" y1="116.135" x2="1194.97" y2="55.2194" stroke="#D6F4FD" stroke-width="3"/>
<line x1="1055.24" y1="116.428" x2="1089.46" y2="-19.2367" stroke="#D6F4FD" stroke-width="3"/>
<line x1="959.589" y1="204.845" x2="1055.67" y2="115.695" stroke="#D6F4FD" stroke-width="3"/>
<line x1="1195.02" y1="55.1977" x2="1433.28" y2="-38.7793" stroke="#D6F4FD" stroke-width="3"/>
<line x1="1196.91" y1="55.9219" x2="1252.26" y2="166.571" stroke="#D6F4FD" stroke-width="3"/>
<line x1="1249.8" y1="166.242" x2="1432.72" y2="-38.3836" stroke="#D6F4FD" stroke-width="3"/>
<circle cx="1425.75" cy="98.6896" r="15.3844" transform="rotate(-176.75 1425.75 98.6896)" fill="#A1F8FD"/>
<circle cx="1195.19" cy="56.93" r="15.3844" transform="rotate(-176.75 1195.19 56.93)" fill="#A1F8FD"/>
<circle cx="1250.55" cy="167.579" r="15.3844" transform="rotate(-176.75 1250.55 167.579)" fill="#A1F8FD"/>
<circle cx="1056.27" cy="117.846" r="15.3844" transform="rotate(-176.75 1056.27 117.846)" fill="#A1F8FD"/>
<circle cx="960.232" cy="206.281" r="15.3844" transform="rotate(-176.75 960.232 206.281)" fill="#A1F8FD"/>
<circle cx="968.629" cy="58.3997" r="15.3844" transform="rotate(-176.75 968.629 58.3997)" fill="#A1F8FD"/>
</g>
<g opacity="0.2">
<line x1="1431.53" y1="931.584" x2="1641.47" y2="909.701" stroke="#D6F4FD" stroke-width="3"/>
<line x1="1245.2" y1="895.267" x2="1431.97" y2="931.604" stroke="#D6F4FD" stroke-width="3"/>
<line x1="1315.8" y1="683.088" x2="1406.24" y2="795.999" stroke="#D6F4FD" stroke-width="3"/>
<line x1="1476.03" y1="612.658" x2="1406.73" y2="796.706" stroke="#D6F4FD" stroke-width="3"/>
<line x1="1314.02" y1="682.657" x2="1474.01" y2="610.762" stroke="#D6F4FD" stroke-width="3"/>
<line x1="1105.39" y1="886.754" x2="1313.58" y2="682.954" stroke="#D6F4FD" stroke-width="3"/>
<line x1="1241.85" y1="894.684" x2="1404.28" y2="795.656" stroke="#D6F4FD" stroke-width="3"/>
<line x1="1241.21" y1="895.483" x2="1313.21" y2="683.543" stroke="#D6F4FD" stroke-width="3"/>
<line x1="1106.53" y1="886.329" x2="1242.72" y2="894.468" stroke="#D6F4FD" stroke-width="3"/>
<line x1="1404.49" y1="795.551" x2="1543.6" y2="737.743" stroke="#D6F4FD" stroke-width="3"/>
<line x1="1406.54" y1="796.649" x2="1433.16" y2="932.788" stroke="#D6F4FD" stroke-width="3"/>
<line x1="1430.39" y1="932.318" x2="1541.33" y2="742.928" stroke="#D6F4FD" stroke-width="3"/>
<circle cx="1404.56" cy="797.187" r="17.249" transform="rotate(-161.236 1404.56 797.187)" fill="#A1F8FD"/>
<circle cx="1431.18" cy="933.327" r="17.249" transform="rotate(-161.236 1431.18 933.327)" fill="#A1F8FD"/>
<circle cx="1244.4" cy="896.99" r="17.249" transform="rotate(-161.236 1244.4 896.99)" fill="#A1F8FD"/>
<circle cx="1105.93" cy="888.077" r="17.249" transform="rotate(-161.236 1105.93 888.077)" fill="#A1F8FD"/>
<circle cx="1314.12" cy="684.276" r="17.249" transform="rotate(-161.236 1314.12 684.276)" fill="#A1F8FD"/>
</g>
<g opacity="0.2">
<mask id="mask0_135_104" style="mask-type:luminance" maskUnits="userSpaceOnUse" x="-131" y="-272" width="1134" height="637">
<path d="M-130.295 -271.352H1002.15V364.377H-130.295V-271.352Z" fill="white"/>
</mask>
<g mask="url(#mask0_135_104)">
<path d="M85.5254 146C85.5254 113.123 56.4128 86.4715 20.5003 86.4715C-15.4123 86.4715 -44.5254 113.123 -44.5254 146C-44.5254 178.877 -15.4123 205.528 20.5003 205.528C56.4128 205.528 85.5254 178.877 85.5254 146Z" stroke="#A1F8FD" stroke-width="6.66667" stroke-miterlimit="10" stroke-linejoin="round"/>
</g>
<mask id="mask1_135_104" style="mask-type:luminance" maskUnits="userSpaceOnUse" x="-131" y="-272" width="1134" height="637">
<path d="M-130.295 -271.352H1002.15V364.377H-130.295V-271.352Z" fill="white"/>
</mask>
<g mask="url(#mask1_135_104)">
<path d="M48.5716 146C48.5716 113.123 36.0033 86.4715 20.5001 86.4715C4.99684 86.4715 -7.5715 113.123 -7.5715 146C-7.5715 178.877 4.99684 205.528 20.5001 205.528C36.0033 205.528 48.5716 178.877 48.5716 146Z" stroke="#A1F8FD" stroke-width="6.66667" stroke-miterlimit="10" stroke-linejoin="round"/>
</g>
<mask id="mask2_135_104" style="mask-type:luminance" maskUnits="userSpaceOnUse" x="-131" y="-272" width="1134" height="637">
<path d="M-130.295 -271.352H1002.15V364.377H-130.295V-271.352Z" fill="white"/>
</mask>
<g mask="url(#mask2_135_104)">
<path d="M-39.9578 123.943H80.9138" stroke="#A1F8FD" stroke-width="6.66667" stroke-miterlimit="10" stroke-linejoin="round"/>
</g>
<mask id="mask3_135_104" style="mask-type:luminance" maskUnits="userSpaceOnUse" x="-131" y="-272" width="1134" height="637">
<path d="M-130.295 -271.352H1002.15V364.377H-130.295V-271.352Z" fill="white"/>
</mask>
<g mask="url(#mask3_135_104)">
<path d="M-39.9578 167.957H80.9138" stroke="#A1F8FD" stroke-width="6.66667" stroke-miterlimit="10" stroke-linejoin="round"/>
</g>
</g>
</svg>
