<svg width="1280" height="480" viewBox="0 0 1280 480" fill="none" xmlns="http://www.w3.org/2000/svg">
<g clip-path="url(#clip0_146_186)">
<path d="M-2 0H1280V480L-2 456V0Z" fill="#4285F4"/>
<g opacity="0.2">
<line x1="1308.76" y1="-33.8646" x2="1241.67" y2="35.7701" stroke="#D6F4FD" stroke-width="1.7978"/>
<line x1="1246.44" y1="-44.4324" x2="1241.82" y2="36.9099" stroke="#D6F4FD" stroke-width="1.7978"/>
<line x1="1135.6" y1="77.305" x2="1240.59" y2="36.022" stroke="#D6F4FD" stroke-width="1.7978"/>
<line x1="1019.73" y1="47.4681" x2="1136.15" y2="77.2714" stroke="#D6F4FD" stroke-width="1.7978"/>
<line x1="961.835" y1="100.443" x2="1135.81" y2="77.2506" stroke="#D6F4FD" stroke-width="1.7978"/>
<line x1="1040.57" y1="-34.1173" x2="1103.28" y2="11.1051" stroke="#D6F4FD" stroke-width="1.7978"/>
<line x1="1070.61" y1="-73.2592" x2="1103.62" y2="11.0785" stroke="#D6F4FD" stroke-width="1.7978"/>
<line x1="966.506" y1="11.9547" x2="1039.56" y2="-34.1484" stroke="#D6F4FD" stroke-width="1.7978"/>
<line x1="961.056" y1="101.284" x2="966.112" y2="12.2351" stroke="#D6F4FD" stroke-width="1.7978"/>
<line x1="967.486" y1="11.968" x2="1020.03" y2="47.164" stroke="#D6F4FD" stroke-width="1.7978"/>
<line x1="1019.15" y1="47.5156" x2="1102.4" y2="11.0107" stroke="#D6F4FD" stroke-width="1.7978"/>
<line x1="1018.66" y1="47.6908" x2="1039.17" y2="-33.6083" stroke="#D6F4FD" stroke-width="1.7978"/>
<line x1="961.342" y1="100.676" x2="1018.92" y2="47.2512" stroke="#D6F4FD" stroke-width="1.7978"/>
<line x1="1102.43" y1="10.9973" x2="1245.21" y2="-45.3199" stroke="#D6F4FD" stroke-width="1.7978"/>
<line x1="1103.56" y1="11.4313" x2="1136.73" y2="77.7395" stroke="#D6F4FD" stroke-width="1.7978"/>
<line x1="1135.26" y1="77.5425" x2="1244.87" y2="-45.0829" stroke="#D6F4FD" stroke-width="1.7978"/>
<circle cx="1240.7" cy="37.0609" r="9.21935" transform="rotate(-176.75 1240.7 37.0609)" fill="#A1F8FD"/>
<circle cx="1102.53" cy="12.0355" r="9.21935" transform="rotate(-176.75 1102.53 12.0355)" fill="#A1F8FD"/>
<circle cx="1135.7" cy="78.3441" r="9.21935" transform="rotate(-176.75 1135.7 78.3441)" fill="#A1F8FD"/>
<circle cx="1019.28" cy="48.5404" r="9.21935" transform="rotate(-176.75 1019.28 48.5404)" fill="#A1F8FD"/>
<circle cx="961.727" cy="101.537" r="9.21935" transform="rotate(-176.75 961.727 101.537)" fill="#A1F8FD"/>
<circle cx="966.76" cy="12.9164" r="9.21935" transform="rotate(-176.75 966.76 12.9164)" fill="#A1F8FD"/>
</g>
<g opacity="0.2">
<line x1="1278.49" y1="445.378" x2="1397.81" y2="432.941" stroke="#D6F4FD" stroke-width="1.70506"/>
<line x1="1172.59" y1="424.737" x2="1278.74" y2="445.389" stroke="#D6F4FD" stroke-width="1.70506"/>
<line x1="1212.72" y1="304.145" x2="1264.12" y2="368.318" stroke="#D6F4FD" stroke-width="1.70506"/>
<line x1="1303.78" y1="264.116" x2="1264.4" y2="368.72" stroke="#D6F4FD" stroke-width="1.70506"/>
<line x1="1211.7" y1="303.9" x2="1302.64" y2="263.038" stroke="#D6F4FD" stroke-width="1.70506"/>
<line x1="1093.13" y1="419.9" x2="1211.46" y2="304.069" stroke="#D6F4FD" stroke-width="1.70506"/>
<line x1="1170.69" y1="424.406" x2="1263.01" y2="368.123" stroke="#D6F4FD" stroke-width="1.70506"/>
<line x1="1170.32" y1="424.86" x2="1211.25" y2="304.403" stroke="#D6F4FD" stroke-width="1.70506"/>
<line x1="1093.78" y1="419.658" x2="1171.18" y2="424.284" stroke="#D6F4FD" stroke-width="1.70506"/>
<line x1="1263.12" y1="368.063" x2="1342.19" y2="335.208" stroke="#D6F4FD" stroke-width="1.70506"/>
<line x1="1264.29" y1="368.687" x2="1279.42" y2="446.062" stroke="#D6F4FD" stroke-width="1.70506"/>
<line x1="1277.84" y1="445.795" x2="1340.9" y2="338.155" stroke="#D6F4FD" stroke-width="1.70506"/>
<circle cx="1263.16" cy="368.993" r="9.80353" transform="rotate(-161.236 1263.16 368.993)" fill="#A1F8FD"/>
<circle cx="1278.29" cy="446.369" r="9.80353" transform="rotate(-161.236 1278.29 446.369)" fill="#A1F8FD"/>
<circle cx="1172.14" cy="425.716" r="9.80353" transform="rotate(-161.236 1172.14 425.716)" fill="#A1F8FD"/>
<circle cx="1093.44" cy="420.651" r="9.80353" transform="rotate(-161.236 1093.44 420.651)" fill="#A1F8FD"/>
<circle cx="1211.76" cy="304.82" r="9.80353" transform="rotate(-161.236 1211.76 304.82)" fill="#A1F8FD"/>
</g>
<g opacity="0.2">
<mask id="mask0_146_186" style="mask-type:luminance" maskUnits="userSpaceOnUse" x="-107" y="-196" width="781" height="439">
<path d="M-106.039 -195.357H673.675V242.358H-106.039V-195.357Z" fill="white"/>
</mask>
<g mask="url(#mask0_146_186)">
<path d="M42.5588 91.9996C42.5588 69.3632 22.5141 51.0128 -2.21257 51.0128C-26.9392 51.0128 -46.9844 69.3632 -46.9844 91.9996C-46.9844 114.636 -26.9392 132.986 -2.21257 132.986C22.5141 132.986 42.5588 114.636 42.5588 91.9996Z" stroke="#A1F8FD" stroke-width="4.59016" stroke-miterlimit="10" stroke-linejoin="round"/>
</g>
<mask id="mask1_146_186" style="mask-type:luminance" maskUnits="userSpaceOnUse" x="-107" y="-196" width="781" height="439">
<path d="M-106.039 -195.357H673.675V242.358H-106.039V-195.357Z" fill="white"/>
</mask>
<g mask="url(#mask1_146_186)">
<path d="M17.1147 91.9996C17.1147 69.3632 8.46107 51.0128 -2.21329 51.0128C-12.8877 51.0128 -21.5413 69.3632 -21.5413 91.9996C-21.5413 114.636 -12.8877 132.986 -2.21329 132.986C8.46107 132.986 17.1147 114.636 17.1147 91.9996Z" stroke="#A1F8FD" stroke-width="4.59016" stroke-miterlimit="10" stroke-linejoin="round"/>
</g>
<mask id="mask2_146_186" style="mask-type:luminance" maskUnits="userSpaceOnUse" x="-107" y="-196" width="781" height="439">
<path d="M-106.039 -195.357H673.675V242.358H-106.039V-195.357Z" fill="white"/>
</mask>
<g mask="url(#mask2_146_186)">
<path d="M-43.8396 76.813H39.3835" stroke="#A1F8FD" stroke-width="4.59016" stroke-miterlimit="10" stroke-linejoin="round"/>
</g>
<mask id="mask3_146_186" style="mask-type:luminance" maskUnits="userSpaceOnUse" x="-107" y="-196" width="781" height="439">
<path d="M-106.039 -195.357H673.675V242.358H-106.039V-195.357Z" fill="white"/>
</mask>
<g mask="url(#mask3_146_186)">
<path d="M-43.8396 107.117H39.3835" stroke="#A1F8FD" stroke-width="4.59016" stroke-miterlimit="10" stroke-linejoin="round"/>
</g>
</g>
</g>
<defs>
<clipPath id="clip0_146_186">
<rect width="1280" height="480" fill="white"/>
</clipPath>
</defs>
</svg>
