<svg width="128" height="128" viewBox="0 0 128 128" fill="none" xmlns="http://www.w3.org/2000/svg">
<rect x="64.25" y="0.25" width="63.5" height="63.5" fill="#004135" stroke="#167261" stroke-width="0.5"/>
<mask id="mask0_112_1496" style="mask-type:alpha" maskUnits="userSpaceOnUse" x="64" y="0" width="64" height="64">
<rect x="64.5" y="0.5" width="63" height="63" fill="#4285F4" stroke="#8AB4F8"/>
</mask>
<g mask="url(#mask0_112_1496)">
<circle cx="128" r="63.5" stroke="#167261"/>
</g>
<rect x="0.25" y="63.75" width="63.5" height="63.5" transform="rotate(-90 0.25 63.75)" fill="#004135" stroke="#167261" stroke-width="0.5"/>
<mask id="mask1_112_1496" style="mask-type:alpha" maskUnits="userSpaceOnUse" x="0" y="0" width="64" height="64">
<rect x="0.5" y="63.5" width="63" height="63" transform="rotate(-90 0.5 63.5)" fill="#4285F4" stroke="#8AB4F8"/>
</mask>
<g mask="url(#mask1_112_1496)">
<circle cx="7.63192e-07" cy="7.63192e-07" r="63.5" transform="rotate(-90 7.63192e-07 7.63192e-07)" stroke="#167261"/>
</g>
<rect x="127.75" y="64.25" width="63.5" height="63.5" transform="rotate(90 127.75 64.25)" fill="#004135" stroke="#167261" stroke-width="0.5"/>
<mask id="mask2_112_1496" style="mask-type:alpha" maskUnits="userSpaceOnUse" x="64" y="64" width="64" height="64">
<rect x="127.5" y="64.5" width="63" height="63" transform="rotate(90 127.5 64.5)" fill="#4285F4" stroke="#8AB4F8"/>
</mask>
<g mask="url(#mask2_112_1496)">
<circle cx="128" cy="128" r="63.5" transform="rotate(90 128 128)" stroke="#167261"/>
</g>
<rect x="63.75" y="127.75" width="63.5" height="63.5" transform="rotate(-180 63.75 127.75)" fill="#004135" stroke="#167261" stroke-width="0.5"/>
<mask id="mask3_112_1496" style="mask-type:alpha" maskUnits="userSpaceOnUse" x="0" y="64" width="64" height="64">
<rect x="63.5" y="127.5" width="63" height="63" transform="rotate(-180 63.5 127.5)" fill="#4285F4" stroke="#8AB4F8"/>
</mask>
<g mask="url(#mask3_112_1496)">
<circle cx="5.59506e-06" cy="128" r="63.5" transform="rotate(-180 5.59506e-06 128)" stroke="#167261"/>
</g>
</svg>
