<svg width="768" height="96" viewBox="0 0 768 96" fill="none" xmlns="http://www.w3.org/2000/svg">
<g clip-path="url(#clip0_228_31)">
<rect width="768" height="96" fill="#0F46A0"/>
<path d="M177.232 57C152.42 57 130.794 69.8133 118.295 89.0581C109.855 81.1389 98.6151 76.1691 86.14 76.1691C62.9118 76.1691 43.6743 93.0151 39.7408 115.16C32.7778 113.314 25.148 111.978 16.5413 111.978C-9.70088 111.978 -30.9988 121.745 -30.9988 133.838C-30.9988 133.89 -31.0014 133.948 -30.9988 134H281.836C281.857 133.752 282 133.52 282 133.267C282 123.079 266.55 114.912 246.101 112.466C239.519 80.7864 211.154 57 177.232 57Z" stroke="white" stroke-opacity="0.3" stroke-width="7" stroke-miterlimit="10" stroke-linejoin="round"/>
<circle cx="658" cy="6" r="13" stroke="white" stroke-opacity="0.3" stroke-width="4"/>
<circle cx="424" cy="72" r="13" stroke="white" stroke-opacity="0.3" stroke-width="4"/>
<path d="M35.4733 12L37.8826 22.3764L43.5169 13.3359L46.0629 14.9227L40.4308 23.9597L50.803 21.5519L51.4814 24.4742L41.1066 26.8826L50.1459 32.5156L48.5593 35.0617L39.52 29.4287L41.9288 39.8031L39.0066 40.4816L36.5982 30.1092L30.966 39.1465L28.4199 37.5597L34.0539 28.5198L23.6784 30.9283L23 28.006L33.3729 25.5981L24.3355 19.9663L25.9222 17.4202L34.9596 23.052L32.551 12.6785L35.4733 12Z" fill="white" fill-opacity="0.2"/>
<path d="M750.759 6L752.451 13.2864L756.407 6.9381L758.195 8.05232L754.24 14.3982L761.524 12.7074L762 14.7595L754.715 16.4507L761.062 20.4062L759.948 22.1941L753.601 18.2386L755.292 25.5235L753.24 26L751.549 18.7164L747.594 25.0625L745.806 23.9482L749.762 17.6003L742.476 19.2916L742 17.2395L749.284 15.5487L742.938 11.594L744.052 9.80612L750.398 13.7608L748.707 6.47646L750.759 6Z" fill="white" fill-opacity="0.2"/>
</g>
<defs>
<clipPath id="clip0_228_31">
<rect width="768" height="96" fill="white"/>
</clipPath>
</defs>
</svg>
