<svg width="684" height="516" viewBox="0 0 684 516" fill="none" xmlns="http://www.w3.org/2000/svg">
<line x1="204.002" y1="374.12" x2="20.0019" y2="210.12" stroke="#D6F4FD" stroke-width="3"/>
<line x1="260.627" y1="100.363" x2="21.6271" y2="210.363" stroke="#D6F4FD" stroke-width="3"/>
<line x1="495.202" y1="68.4863" x2="260.202" y2="100.486" stroke="#D6F4FD" stroke-width="3"/>
<line x1="497.193" y1="347.264" x2="345.193" y2="250.264" stroke="#D6F4FD" stroke-width="3"/>
<line x1="336.501" y1="494.951" x2="344.501" y2="249.951" stroke="#D6F4FD" stroke-width="3"/>
<line x1="336.986" y1="496.105" x2="203.986" y2="374.105" stroke="#D6F4FD" stroke-width="3"/>
<line x1="499.022" y1="347.098" x2="339.022" y2="496.098" stroke="#D6F4FD" stroke-width="3"/>
<line x1="663.338" y1="22.6774" x2="499.338" y2="346.677" stroke="#D6F4FD" stroke-width="3"/>
<line x1="499.151" y1="67.9615" x2="347.151" y2="249.962" stroke="#D6F4FD" stroke-width="3"/>
<line x1="499.5" y1="67" x2="499.5" y2="346" stroke="#D6F4FD" stroke-width="3"/>
<line x1="662.397" y1="23.4465" x2="498.397" y2="68.4465" stroke="#D6F4FD" stroke-width="3"/>
<line x1="346.991" y1="250.126" x2="205.991" y2="374.126" stroke="#D6F4FD" stroke-width="3"/>
<line x1="344.699" y1="249.746" x2="258.699" y2="99.7461" stroke="#D6F4FD" stroke-width="3"/>
<line x1="261.469" y1="99.3016" x2="206.469" y2="367.302" stroke="#D6F4FD" stroke-width="3"/>
<circle cx="21.5" cy="208.5" r="21.5" fill="#A1F8FD"/>
<circle cx="205.5" cy="372.5" r="21.5" fill="#A1F8FD"/>
<circle cx="346.5" cy="248.5" r="21.5" fill="#A1F8FD"/>
<circle cx="260.5" cy="98.5" r="21.5" fill="#A1F8FD"/>
<circle cx="495.5" cy="66.5" r="21.5" fill="#A1F8FD"/>
<circle cx="662.5" cy="21.5" r="21.5" fill="#A1F8FD"/>
<circle cx="498.5" cy="345.5" r="21.5" fill="#A1F8FD"/>
<circle cx="338.5" cy="494.5" r="21.5" fill="#A1F8FD"/>
</svg>
