<svg width="836" height="463" viewBox="0 0 836 463" fill="none" xmlns="http://www.w3.org/2000/svg">
<line x1="24.8625" y1="383.022" x2="171.863" y2="212.022" stroke="#D6F4FD" stroke-width="3"/>
<line x1="171.5" y1="399" x2="171.5" y2="209" stroke="#D6F4FD" stroke-width="3"/>
<line x1="172.902" y1="400.497" x2="20.9015" y2="390.497" stroke="#D6F4FD" stroke-width="3"/>
<line x1="412.627" y1="100.363" x2="173.627" y2="210.363" stroke="#D6F4FD" stroke-width="3"/>
<line x1="686.711" y1="154.472" x2="411.711" y2="100.472" stroke="#D6F4FD" stroke-width="3"/>
<line x1="814.282" y1="23.4732" x2="412.282" y2="100.473" stroke="#D6F4FD" stroke-width="3"/>
<line x1="649.193" y1="347.264" x2="497.193" y2="250.264" stroke="#D6F4FD" stroke-width="3"/>
<line x1="584.636" y1="442.625" x2="496.636" y2="250.625" stroke="#D6F4FD" stroke-width="3"/>
<line x1="585.844" y1="443.492" x2="173.844" y2="400.492" stroke="#D6F4FD" stroke-width="3"/>
<line x1="651.248" y1="346.832" x2="587.248" y2="442.832" stroke="#D6F4FD" stroke-width="3"/>
<line x1="814.871" y1="230.221" x2="650.871" y2="347.221" stroke="#D6F4FD" stroke-width="3"/>
<line x1="815.5" y1="22" x2="815.5" y2="230" stroke="#D6F4FD" stroke-width="3"/>
<line x1="813.237" y1="230.292" x2="686.237" y2="155.292" stroke="#D6F4FD" stroke-width="3"/>
<line x1="687.679" y1="154.337" x2="498.679" y2="250.337" stroke="#D6F4FD" stroke-width="3"/>
<line x1="688.473" y1="154.284" x2="651.473" y2="346.284" stroke="#D6F4FD" stroke-width="3"/>
<line x1="815.081" y1="23.04" x2="688.081" y2="155.04" stroke="#D6F4FD" stroke-width="3"/>
<line x1="498.629" y1="250.362" x2="173.629" y2="400.362" stroke="#D6F4FD" stroke-width="3"/>
<line x1="496.699" y1="249.746" x2="410.699" y2="99.7461" stroke="#D6F4FD" stroke-width="3"/>
<line x1="413.173" y1="99.9347" x2="174.173" y2="399.935" stroke="#D6F4FD" stroke-width="3"/>
<circle cx="21.5" cy="388.5" r="21.5" fill="#A1F8FD"/>
<circle cx="173.5" cy="208.5" r="21.5" fill="#A1F8FD"/>
<circle cx="173.5" cy="398.5" r="21.5" fill="#A1F8FD"/>
<circle cx="498.5" cy="248.5" r="21.5" fill="#A1F8FD"/>
<circle cx="412.5" cy="98.5" r="21.5" fill="#A1F8FD"/>
<circle cx="687.5" cy="152.5" r="21.5" fill="#A1F8FD"/>
<circle cx="814.5" cy="21.5" r="21.5" fill="#A1F8FD"/>
<circle cx="650.5" cy="345.5" r="21.5" fill="#A1F8FD"/>
<circle cx="814.5" cy="228.5" r="21.5" fill="#A1F8FD"/>
<circle cx="586.5" cy="441.5" r="21.5" fill="#A1F8FD"/>
</svg>
